<svg xmlns="http://www.w3.org/2000/svg" xmlns:xlink="http://www.w3.org/1999/xlink" version="1.1" xml:space="preserve" id="logo" viewBox="0 0 846.32 113.86" style="height: 100%;">
<rect x="0" y="0" width="100%" height="100%" fill="rgba(255,255,255,0)"/>
<g transform="matrix(0.2557 0 0 0.2557 59.3224 59.3224)" id="152911">
<g style="" vector-effect="non-scaling-stroke">
		<g transform="matrix(1 0 0 1 -80 -128)" id="Layer_1">
<rect style="stroke: none; stroke-width: 1; stroke-dasharray: none; stroke-linecap: butt; stroke-dashoffset: 0; stroke-linejoin: miter; stroke-miterlimit: 4; is-custom-font: none; font-file-url: none; fill: rgb(255,248,239); fill-rule: nonzero; opacity: 1;" x="-16" y="-24" rx="0" ry="0" width="32" height="48"/>
</g>
		<g transform="matrix(1 0 0 1 -120 -128)" id="Layer_1">
<rect style="stroke: none; stroke-width: 1; stroke-dasharray: none; stroke-linecap: butt; stroke-dashoffset: 0; stroke-linejoin: miter; stroke-miterlimit: 4; is-custom-font: none; font-file-url: none; fill: rgb(255,153,0); fill-rule: nonzero; opacity: 1;" x="-8" y="-24" rx="0" ry="0" width="16" height="48"/>
</g>
		<g transform="matrix(1 0 0 1 -40 -128)" id="Layer_1">
<rect style="stroke: none; stroke-width: 1; stroke-dasharray: none; stroke-linecap: butt; stroke-dashoffset: 0; stroke-linejoin: miter; stroke-miterlimit: 4; is-custom-font: none; font-file-url: none; fill: rgb(255,153,0); fill-rule: nonzero; opacity: 1;" x="-8" y="-24" rx="0" ry="0" width="16" height="48"/>
</g>
		<g transform="matrix(1 0 0 1 128 160)" id="Layer_1">
<path style="stroke: none; stroke-width: 1; stroke-dasharray: none; stroke-linecap: butt; stroke-dashoffset: 0; stroke-linejoin: miter; stroke-miterlimit: 4; is-custom-font: none; font-file-url: none; fill: rgb(255,248,239); fill-rule: nonzero; opacity: 1;" transform=" translate(-360, -392)" d="M 360 360 c 17.6 0 32 14.4 32 32 s -14.4 32 -32 32 s -32 -14.4 -32 -32 S 342.4 360 360 360 z M 384 392 c 0 -13.6 -10.4 -24 -24 -24 s -24 10.4 -24 24 s 10.4 24 24 24 S 384 405.6 384 392 z" stroke-linecap="round"/>
</g>
		<g transform="matrix(1 0 0 1 -88 160)" id="Layer_1">
<path style="stroke: none; stroke-width: 1; stroke-dasharray: none; stroke-linecap: butt; stroke-dashoffset: 0; stroke-linejoin: miter; stroke-miterlimit: 4; is-custom-font: none; font-file-url: none; fill: rgb(255,248,239); fill-rule: nonzero; opacity: 1;" transform=" translate(-144, -392)" d="M 144 360 c 17.6 0 32 14.4 32 32 s -14.4 32 -32 32 s -32 -14.4 -32 -32 S 126.4 360 144 360 z M 168 392 c 0 -13.6 -11.2 -24 -24 -24 s -24 10.4 -24 24 s 11.2 24 24 24 S 168 405.6 168 392 z" stroke-linecap="round"/>
</g>
		<g transform="matrix(1 0 0 1 -128 24)" id="Layer_1">
<rect style="stroke: none; stroke-width: 1; stroke-dasharray: none; stroke-linecap: butt; stroke-dashoffset: 0; stroke-linejoin: miter; stroke-miterlimit: 4; is-custom-font: none; font-file-url: none; fill: rgb(108,211,216); fill-rule: nonzero; opacity: 1;" x="-48" y="-24" rx="0" ry="0" width="96" height="48"/>
</g>
		<g transform="matrix(1 0 0 1 20 24)" id="Layer_1">
<rect style="stroke: none; stroke-width: 1; stroke-dasharray: none; stroke-linecap: butt; stroke-dashoffset: 0; stroke-linejoin: miter; stroke-miterlimit: 4; is-custom-font: none; font-file-url: none; fill: rgb(108,211,216); fill-rule: nonzero; opacity: 1;" x="-52" y="-24" rx="0" ry="0" width="104" height="48"/>
</g>
		<g transform="matrix(1 0 0 1 168 24)" id="Layer_1">
<rect style="stroke: none; stroke-width: 1; stroke-dasharray: none; stroke-linecap: butt; stroke-dashoffset: 0; stroke-linejoin: miter; stroke-miterlimit: 4; is-custom-font: none; font-file-url: none; fill: rgb(108,211,216); fill-rule: nonzero; opacity: 1;" x="-48" y="-24" rx="0" ry="0" width="96" height="48"/>
</g>
		<g transform="matrix(1 0 0 1 0 0)" id="Layer_1">
<path style="stroke: none; stroke-width: 1; stroke-dasharray: none; stroke-linecap: butt; stroke-dashoffset: 0; stroke-linejoin: miter; stroke-miterlimit: 4; is-custom-font: none; font-file-url: none; fill: rgb(66,33,11); fill-rule: nonzero; opacity: 1;" transform=" translate(-232, -232)" d="M 464 376 v 10.4 c 0 7.2 -5.6 13.6 -13.6 13.6 h -43.2 c -4 22.4 -23.2 40 -47.2 40 s -43.2 -17.6 -47.2 -40 H 191.2 c -4 22.4 -23.2 40 -47.2 40 s -43.2 -17.6 -47.2 -40 h -44 c -7.2 0 -12.8 -5.6 -12.8 -13.6 V 376 v -16 H 28.8 C 12.8 360 0 347.2 0 331.2 v -70.4 c 0 -16 12.8 -28.8 28.8 -28.8 H 40 v -0.8 c 0 -30.4 24.8 -55.2 55.2 -55.2 H 120 v -8 H 80 c -4.8 0 -8 -4 -8 -8 v -24 c 0 -4 3.2 -8 8 -8 h 8 V 72 c 0 -4.8 3.2 -8 8 -8 h 32 V 48 c 0 -4.8 4 -8 8 -8 h 32 c 4 0 8 3.2 8 8 v 16 h 32 c 4 0 8 3.2 8 8 v 56 h 20.8 c -3.2 -4.8 -4.8 -10.4 -4.8 -16 c 0 -17.6 14.4 -32 32 -32 c 5.6 0 11.2 1.6 16 4.8 l 22.4 -22.4 l -4 -14.4 H 288 c -4 0 -8 -3.2 -8 -8 V 24 h 16 v 8 h 32 v 16 h -12.8 l 2.4 8 H 348 l -4 -13.6 c 0 -2.4 0 -4.8 1.6 -7.2 c 1.6 -1.6 4 -3.2 6.4 -3.2 h 36 c 11.2 0 20 8.8 20 20 s -8.8 20 -20 20 h -4 V 56 h 4 c 2.4 0 4 -1.6 4 -4 s -1.6 -4 -4 -4 h -25.6 l 9.6 34.4 c 4 -1.6 8 -2.4 12 -2.4 c 17.6 0 32 14.4 32 32 c 0 5.6 -1.6 11.2 -4.8 16 h 4.8 c 4 0 8 4 8 8 v 24 c 0 4 -4 8 -8 8 h -32 v 8 h 24.8 c 30.4 0 55.2 24.8 55.2 55.2 V 360 V 376 z M 448 384 v -8 h -42.4 c 0.8 2.4 1.6 5.6 2.4 8 H 448 z M 448 360 v -32 h -16 v 32 H 448 z M 448 312 v -16 H 344 c -4 0 -8 -4 -8 -8 v -64 c 0 -4 4 -8 8 -8 h 100.8 c -6.4 -14.4 -20 -24 -36 -24 H 95.2 c -16 0 -30.4 9.6 -36 24 H 160 c 4 0 8 4 8 8 v 64 c 0 4 -4 8 -8 8 H 56 v 16 h 24 c 4.8 0 8 4 8 8 v 40 h 20 c 8.8 -9.6 21.6 -16 36 -16 s 27.2 6.4 36 16 h 144.8 c 8.8 -9.6 21.6 -16 36 -16 s 27.2 6.4 36 16 H 416 v -40 c 0 -4 4 -8 8 -8 H 448 z M 448 280 v -48 h -96 v 48 H 448 z M 408 152 v -8 H 208 H 96 h -8 v 8 H 408 z M 400 112 c 0 -8.8 -7.2 -16 -16 -16 s -16 7.2 -16 16 s 7.2 16 16 16 S 400 120.8 400 112 z M 392 392 c 0 -17.6 -14.4 -32 -32 -32 s -32 14.4 -32 32 s 14.4 32 32 32 S 392 409.6 392 392 z M 368 176 v -8 H 136 v 8 H 368 z M 356.8 85.6 l -4 -13.6 h -29.6 l 9.6 28 L 356.8 85.6 z M 291.2 128 H 356 c -3.2 -4.8 -4.8 -10.4 -4.8 -16 c 0 -1.6 0 -4 0.8 -5.6 l -20.8 12 l 0 0 c 0 0.8 -1.6 1.6 -3.2 1.6 h -32.8 C 294.4 123.2 292.8 125.6 291.2 128 z M 316.8 104 l -8 -24.8 L 291.2 96 c 1.6 2.4 2.4 5.6 3.2 8 H 316.8 z M 314.4 376 H 188.8 c 0.8 2.4 1.6 5.6 2.4 8 h 121.6 C 313.6 381.6 313.6 378.4 314.4 376 z M 280 112 c 0 -8.8 -7.2 -16 -16 -16 s -16 7.2 -16 16 s 7.2 16 16 16 S 280 120.8 280 112 z M 200 128 V 80 h -16 v 48 H 200 z M 176 392 c 0 -17.6 -14.4 -32 -32 -32 s -32 14.4 -32 32 s 14.4 32 32 32 S 176 409.6 176 392 z M 168 128 V 80 h -32 v 48 H 168 z M 160 64 v -8 h -16 v 8 H 160 z M 152 280 v -48 H 56 v 48 H 152 z M 120 128 V 80 h -16 v 48 H 120 z M 99.2 376 H 56 v 8 h 40.8 C 96.8 381.6 97.6 378.4 99.2 376 z M 72 360 v -32 H 56 v 32 H 72 z M 40 344 v -96 H 28.8 c -7.2 0 -12.8 5.6 -12.8 12.8 v 70.4 c 0 7.2 5.6 12.8 12.8 12.8 H 40 z" stroke-linecap="round"/>
</g>
		<g transform="matrix(1 0 0 1 194.4 148)" id="Layer_1">
<path style="stroke: none; stroke-width: 1; stroke-dasharray: none; stroke-linecap: butt; stroke-dashoffset: 0; stroke-linejoin: miter; stroke-miterlimit: 4; is-custom-font: none; font-file-url: none; fill: rgb(179,125,77); fill-rule: nonzero; opacity: 1;" transform=" translate(-426.4, -380)" d="M 448 376 v 8 h -40.8 c -0.8 -2.4 -1.6 -5.6 -2.4 -8 H 448 z" stroke-linecap="round"/>
</g>
		<g transform="matrix(1 0 0 1 208 112)" id="Layer_1">
<rect style="stroke: none; stroke-width: 1; stroke-dasharray: none; stroke-linecap: butt; stroke-dashoffset: 0; stroke-linejoin: miter; stroke-miterlimit: 4; is-custom-font: none; font-file-url: none; fill: rgb(238,86,86); fill-rule: nonzero; opacity: 1;" x="-8" y="-16" rx="0" ry="0" width="16" height="32"/>
</g>
		<g transform="matrix(1 0 0 1 20 44)" id="Layer_1">
<path style="stroke: none; stroke-width: 1; stroke-dasharray: none; stroke-linecap: butt; stroke-dashoffset: 0; stroke-linejoin: miter; stroke-miterlimit: 4; is-custom-font: none; font-file-url: none; fill: rgb(255,248,239); fill-rule: nonzero; opacity: 1;" transform=" translate(-252, -276)" d="M 344 296 c -4 0 -8 -4 -8 -8 v -64 c 0 -4 4 -8 8 -8 h 100.8 c -6.4 -14.4 -20 -24 -36 -24 H 95.2 c -16 0 -30.4 9.6 -36 24 H 160 c 4 0 8 4 8 8 v 64 c 0 4 -4 8 -8 8 H 56 v 16 h 24 c 4 0 8 4 8 8 v 40 h 20 c 8.8 -9.6 21.6 -16 36 -16 s 27.2 6.4 36 16 h 144.8 c 8.8 -9.6 21.6 -16 36 -16 s 27.2 6.4 36 16 H 416 v -40 c 0 -4 4 -8 8 -8 h 24 v -16 H 344 z M 312 296 H 192 c -4 0 -8 -4 -8 -8 v -64 c 0 -4 4 -8 8 -8 h 120 c 4 0 8 4 8 8 v 64 C 320 292 316 296 312 296 z M 376 328 h -32 v -16 h 32 V 328 z" stroke-linecap="round"/>
</g>
		<g transform="matrix(1 0 0 1 16 -84)" id="Layer_1">
<polygon style="stroke: none; stroke-width: 1; stroke-dasharray: none; stroke-linecap: butt; stroke-dashoffset: 0; stroke-linejoin: miter; stroke-miterlimit: 4; is-custom-font: none; font-file-url: none; fill: rgb(179,125,77); fill-rule: nonzero; opacity: 1;" points="160,-4 160,4 -160,4 -160,-4 -152,-4 -40,-4 "/>
</g>
		<g transform="matrix(1 0 0 1 128 160)" id="Layer_1">
<path style="stroke: none; stroke-width: 1; stroke-dasharray: none; stroke-linecap: butt; stroke-dashoffset: 0; stroke-linejoin: miter; stroke-miterlimit: 4; is-custom-font: none; font-file-url: none; fill: rgb(66,33,11); fill-rule: nonzero; opacity: 1;" transform=" translate(-360, -392)" d="M 360 368 c 13.6 0 24 10.4 24 24 s -10.4 24 -24 24 s -24 -10.4 -24 -24 S 346.4 368 360 368 z M 368 392 c 0 -4 -4 -8 -8 -8 s -8 4 -8 8 s 4 8 8 8 S 368 396 368 392 z" stroke-linecap="round"/>
</g>
		<g transform="matrix(1 0 0 1 128 88)" id="Layer_1">
<rect style="stroke: none; stroke-width: 1; stroke-dasharray: none; stroke-linecap: butt; stroke-dashoffset: 0; stroke-linejoin: miter; stroke-miterlimit: 4; is-custom-font: none; font-file-url: none; fill: rgb(66,33,11); fill-rule: nonzero; opacity: 1;" x="-16" y="-8" rx="0" ry="0" width="32" height="16"/>
</g>
		<g transform="matrix(1 0 0 1 20 24)" id="Layer_1">
<path style="stroke: none; stroke-width: 1; stroke-dasharray: none; stroke-linecap: butt; stroke-dashoffset: 0; stroke-linejoin: miter; stroke-miterlimit: 4; is-custom-font: none; font-file-url: none; fill: rgb(66,33,11); fill-rule: nonzero; opacity: 1;" transform=" translate(-252, -256)" d="M 320 224 v 64 c 0 4 -4 8 -8 8 H 192 c -4 0 -8 -4 -8 -8 v -64 c 0 -4 4 -8 8 -8 h 120 C 316 216 320 220 320 224 z M 304 280 v -48 H 200 v 48 H 304 z" stroke-linecap="round"/>
</g>
		<g transform="matrix(1 0 0 1 19.6 148)" id="Layer_1">
<path style="stroke: none; stroke-width: 1; stroke-dasharray: none; stroke-linecap: butt; stroke-dashoffset: 0; stroke-linejoin: miter; stroke-miterlimit: 4; is-custom-font: none; font-file-url: none; fill: rgb(179,125,77); fill-rule: nonzero; opacity: 1;" transform=" translate(-251.6, -380)" d="M 188.8 376 h 125.6 c -0.8 2.4 -1.6 5.6 -2.4 8 H 191.2 C 191.2 381.6 190.4 378.4 188.8 376 z" stroke-linecap="round"/>
</g>
		<g transform="matrix(1 0 0 1 -88 160)" id="Layer_1">
<path style="stroke: none; stroke-width: 1; stroke-dasharray: none; stroke-linecap: butt; stroke-dashoffset: 0; stroke-linejoin: miter; stroke-miterlimit: 4; is-custom-font: none; font-file-url: none; fill: rgb(66,33,11); fill-rule: nonzero; opacity: 1;" transform=" translate(-144, -392)" d="M 144 368 c 12.8 0 24 10.4 24 24 s -11.2 24 -24 24 s -24 -10.4 -24 -24 S 131.2 368 144 368 z M 152 392 c 0 -4 -4 -8 -8 -8 s -8 4 -8 8 s 4 8 8 8 S 152 396 152 392 z" stroke-linecap="round"/>
</g>
		<g transform="matrix(1 0 0 1 -154.4 148)" id="Layer_1">
<path style="stroke: none; stroke-width: 1; stroke-dasharray: none; stroke-linecap: butt; stroke-dashoffset: 0; stroke-linejoin: miter; stroke-miterlimit: 4; is-custom-font: none; font-file-url: none; fill: rgb(179,125,77); fill-rule: nonzero; opacity: 1;" transform=" translate(-77.6, -380)" d="M 56 376 h 43.2 c -0.8 2.4 -1.6 5.6 -2.4 8 H 56 V 376 z" stroke-linecap="round"/>
</g>
		<g transform="matrix(1 0 0 1 -168 112)" id="Layer_1">
<rect style="stroke: none; stroke-width: 1; stroke-dasharray: none; stroke-linecap: butt; stroke-dashoffset: 0; stroke-linejoin: miter; stroke-miterlimit: 4; is-custom-font: none; font-file-url: none; fill: rgb(238,86,86); fill-rule: nonzero; opacity: 1;" x="-8" y="-16" rx="0" ry="0" width="16" height="32"/>
</g>
		<g transform="matrix(1 0 0 1 -204 64)" id="Layer_1">
<path style="stroke: none; stroke-width: 1; stroke-dasharray: none; stroke-linecap: butt; stroke-dashoffset: 0; stroke-linejoin: miter; stroke-miterlimit: 4; is-custom-font: none; font-file-url: none; fill: rgb(179,125,77); fill-rule: nonzero; opacity: 1;" transform=" translate(-28, -296)" d="M 40 248 v 96 H 28.8 c -7.2 0 -12.8 -5.6 -12.8 -12.8 v -70.4 c 0 -7.2 5.6 -12.8 12.8 -12.8 H 40 z" stroke-linecap="round"/>
</g>
		<g transform="matrix(1 0 0 1 20 116)" id="Layer_1">
<path style="stroke: none; stroke-width: 1; stroke-dasharray: none; stroke-linecap: butt; stroke-dashoffset: 0; stroke-linejoin: miter; stroke-miterlimit: 4; is-custom-font: none; font-file-url: none; fill: rgb(217,205,193); fill-rule: nonzero; opacity: 1;" transform=" translate(-252, -348)" d="M 88 336 v 24 h 20 c 8.8 -9.6 21.6 -16 36 -16 s 27.2 6.4 36 16 h 144.8 c 8.8 -9.6 21.6 -16 36 -16 s 27.2 6.4 36 16 H 416 v -24 H 88 z" stroke-linecap="round"/>
</g>
</g>
</g>
<g transform="matrix(1 0 0 1 486.9603 65.603)" id="138524">

<path xml:space="preserve" class="logo-text" font-family="Caveat" font-size="93" font-style="normal" font-weight="bold" style="stroke: none; stroke-width: 1; stroke-dasharray: none; stroke-linecap: butt; stroke-dashoffset: 0; stroke-linejoin: miter; stroke-miterlimit: 4; fill: rgb(66,33,11); fill-rule: nonzero; opacity: 1; white-space: pre;" d="M-331.41 34.14L-331.41 34.14Q-333.08 34.24-334.20 32.56Q-335.31 30.89-335.22 29.77L-335.22 29.77Q-335.13 28.29-334.38 25.50Q-333.64 22.70-332.71 19.82Q-331.78 16.94-331.03 15.27L-331.03 15.27Q-330.66 13.78-330.34 12.61Q-330.01 11.45-329.92 11.08L-329.92 11.08Q-329.64 10.71-329.03 9.13Q-328.43 7.55-328.06 6.06L-328.06 6.06Q-327.87 5.31-327.27 3.22Q-326.66 1.13-325.78-1.66Q-324.90-4.45-324.01-7.15Q-323.13-9.85-322.48-11.89Q-321.83-13.94-321.64-14.59L-321.64-14.59Q-320.90-15.70-320.52-16.73Q-320.15-17.75-320.06-18.12L-320.06-18.12Q-319.50-18.49-319.41-19.10Q-319.32-19.70-319.32-20.07L-319.32-20.07Q-319.32-20.54-318.99-20.82Q-318.66-21.10-318.66-21.47L-318.66-21.47Q-318.29-21.75-318.20-21.56Q-318.11-21.38-317.64-21.84L-317.64-21.84L-317.18-25.00L-308.90-25.10Q-309.09-23.98-309.46-22.35Q-309.83-20.73-311.22-18.03L-311.22-18.03Q-311.69-16.17-312.29-14.68Q-312.90-13.19-312.81-12.73L-312.81-12.73Q-312.99-12.54-313.60-10.87Q-314.20-9.19-314.99-6.78Q-315.78-4.36-316.57-1.94Q-317.36 0.48-317.97 2.29Q-318.57 4.11-318.76 4.57L-318.76 4.57Q-319.50 6.06-320.43 8.94Q-321.36 11.82-323.22 16.75L-323.22 16.75Q-323.97 18.24-325.04 21.22Q-326.10 24.19-326.76 26.61L-326.76 26.61Q-327.78 30.24-328.57 31.82Q-329.36 33.40-330.01 33.73Q-330.66 34.05-331.41 34.14ZM-330.57-20.54L-330.57-20.54Q-334.38-20.17-335.73-21.47Q-337.08-22.77-336.71-24.26L-336.71-24.26Q-336.43-25.38-335.36-26.17Q-334.29-26.96-331.41-27.51L-331.41-27.51Q-330.38-27.70-328.75-27.98Q-327.13-28.26-325.64-28.54L-325.64-28.54Q-322.57-28.91-320.57-29.19Q-318.57-29.47-316.43-29.65Q-314.29-29.84-311.04-30.03L-311.04-30.03Q-308.34-30.21-306.44-30.35Q-304.53-30.49-304.53-30.49L-304.53-30.49Q-304.25-30.49-302.58-30.30Q-300.90-30.12-298.95-29.84Q-297.00-29.56-296.07-29.19L-296.07-29.19Q-293.93-28.72-292.62-27.51Q-291.32-26.31-290.95-24.72L-290.95-24.72Q-290.67-23.61-290.95-23.00Q-291.23-22.40-291.97-22.03L-291.97-22.03Q-294.11-21.38-295.46-20.96Q-296.81-20.54-298.11-21.00L-298.11-21.00Q-298.58-21.47-299.18-21.84Q-299.79-22.21-301.23-22.45Q-302.67-22.68-305.74-22.86L-305.74-22.86Q-308.34-22.59-310.29-22.59Q-312.25-22.59-312.25-22.12L-312.25-22.12L-317.73-21.84L-322.29-21.38Q-323.22-21.28-324.90-21.14Q-326.57-21.00-328.15-20.87Q-329.73-20.73-330.57-20.54ZM-306.02 26.70L-306.02 26.70Q-306.85 26.05-307.83 25.03Q-308.81 24.01-308.53 22.15L-308.53 22.15Q-308.25 19.54-307.78 17.54Q-307.32 15.54-306.67 12.94L-306.67 12.94Q-306.48 11.82-305.69 9.13Q-304.90 6.43-303.78 3.27Q-302.67 0.11-301.46-2.73Q-300.25-5.57-299.32-6.96L-299.32-6.96Q-298.30-7.89-296.30-7.89Q-294.30-7.89-293.55-7.15L-293.55-7.15Q-292.53-6.31-292.90-4.22Q-293.28-2.13-295.51 2.25L-295.51 2.25Q-295.97 3.36-296.67 4.62Q-297.37 5.87-297.65 6.66Q-297.93 7.45-297.46 7.36L-297.46 7.36Q-296.90 6.34-295.41 4.99Q-293.93 3.64-292.25 2.34Q-290.58 1.04-289.09 0.01Q-287.60-1.01-287.04-1.29L-287.04-1.29Q-286.30-1.75-285.32-2.08Q-284.35-2.41-283.98-2.59L-283.98-2.59Q-281.84-3.61-279.28-3.38Q-276.72-3.15-276.16-1.75L-276.16-1.75Q-276.07-1.01-275.56-0.64Q-275.05-0.27-275.05-0.27L-275.05-0.27Q-274.68-0.27-274.63 0.01Q-274.58 0.29-274.58 0.29L-274.58 0.29Q-274.58 0.94-275.84 2.15Q-277.09 3.36-278.58 3.45L-278.58 3.45Q-279.79 3.55-280.72 3.92Q-281.65 4.29-282.95 4.85L-282.95 4.85Q-286.49 6.89-289.32 8.48Q-292.16 10.06-295.14 13.31L-295.14 13.31Q-295.79 14.06-296.53 14.71Q-297.27 15.36-298.02 16.57L-298.02 16.57Q-298.48 17.03-298.95 18.61Q-299.41 20.19-299.74 21.64Q-300.06 23.08-300.06 23.36L-300.06 23.36Q-300.06 23.36-300.34 24.24Q-300.62 25.12-301.27 25.96L-301.27 25.96Q-302.39 27.45-303.46 27.82Q-304.53 28.19-306.02 26.70ZM-272.54 27.26L-272.54 27.26Q-272.91 26.52-274.16 25.77Q-275.42 25.03-275.42 24.66L-275.42 24.66Q-275.42 24.29-275.84 23.50Q-276.26 22.70-276.63 22.33L-276.63 22.33Q-277.09 21.77-276.35 19.59Q-275.61 17.40-274.12 14.24Q-272.63 11.08-270.86 7.82L-270.86 7.82Q-270.12 7.08-269.37 5.87Q-268.63 4.66-268.26 4.29L-268.26 4.29Q-268.26 3.92-267.98 3.59Q-267.70 3.27-267.33 3.27L-267.33 3.27L-266.58 1.78Q-266.40 1.41-265.42 0.29Q-264.45-0.82-263.05-2.17Q-261.66-3.52-260.21-4.73Q-258.77-5.94-257.84-6.50L-257.84-6.50Q-255.89-7.80-253.80-7.71Q-251.70-7.61-250.22-6.40L-250.22-6.40Q-249.94-6.12-248.96-5.29Q-247.98-4.45-246.73-3.43Q-245.47-2.41-244.54-1.57L-244.54-1.57L-241.10 1.50L-242.68 6.15Q-243.89 9.87-243.29 12.66Q-242.68 15.45-241.57 17.50L-241.57 17.50Q-241.10 18.52-240.31 19.08Q-239.52 19.64-238.22 19.82L-238.22 19.82Q-237.48 19.91-236.82 20.38Q-236.17 20.84-236.17 21.87L-236.17 21.87Q-236.17 24.10-236.96 25.08Q-237.75 26.05-238.68 26.24L-238.68 26.24Q-241.75 26.61-244.54 25.59Q-247.33 24.56-249.57 20.29L-249.57 20.29Q-249.94 19.73-250.54 18.19Q-251.15 16.66-251.24 16.20L-251.24 16.20Q-251.61 16.66-252.22 17.36Q-252.82 18.05-253.38 18.61L-253.38 18.61Q-259.98 25.31-264.68 27.31Q-269.37 29.31-272.54 27.26ZM-267.42 19.54L-267.42 19.54Q-266.77 19.64-265.38 18.85Q-263.98 18.05-261.66 16.20L-261.66 16.20Q-258.49 13.50-256.45 11.73Q-254.40 9.96-252.45 7.17L-252.45 7.17L-250.40 3.83Q-251.33 1.69-252.08 1.04Q-252.82 0.39-253.56 0.39L-253.56 0.39Q-254.77 0.39-256.45 1.92Q-258.12 3.45-260.21 6.38Q-262.31 9.31-264.91 13.68L-264.91 13.68Q-266.12 15.73-266.77 17.64Q-267.42 19.54-267.42 19.54ZM-227.80 24.29L-227.80 24.29Q-228.45 23.73-229.52 20.94Q-230.59 18.15-231.57 14.43Q-232.55 10.71-233.10 7.55L-233.10 7.55Q-233.48 5.69-233.89 4.38Q-234.31 3.08-234.59 2.25L-234.59 2.25Q-235.06 0.57-234.27-1.29Q-233.48-3.15-232.36-3.80L-232.36-3.80Q-231.90-4.08-230.64-4.22Q-229.38-4.36-229.01-4.26L-229.01-4.26Q-227.90-3.89-226.97-0.87Q-226.04 2.15-225.29 7.08L-225.29 7.08Q-224.92 9.96-224.69 11.31Q-224.46 12.66-224.46 13.03L-224.46 13.03Q-224.08 13.78-223.94 14.85Q-223.80 15.92-223.06 15.17L-223.06 15.17Q-222.69 14.80-221.90 13.87Q-221.11 12.94-219.99 11.45L-219.99 11.45Q-218.04 8.85-216.88 7.13Q-215.71 5.41-214.23 3.55L-214.23 3.55Q-213.57 2.62-212.46 1.50Q-211.34 0.39-210.23-0.59Q-209.11-1.57-208.37-1.75L-208.37-1.75Q-206.13-2.13-205.62-0.13Q-205.11 1.87-206.97 4.48L-206.97 4.48Q-207.72 5.59-208.13 6.57Q-208.55 7.55-208.92 7.92L-208.92 7.92Q-209.67 9.41-211.25 11.68Q-212.83 13.96-214.32 15.87Q-215.81 17.78-216.36 18.33L-216.36 18.33Q-216.74 18.71-217.99 19.73Q-219.25 20.75-220.36 22.33L-220.36 22.33Q-222.60 24.47-224.64 24.94Q-226.69 25.40-227.80 24.29ZM-186.42 27.36L-186.42 27.36Q-189.21 28.94-192.32 29.17Q-195.44 29.40-198.14 28.33Q-200.83 27.26-202.51 25.12L-202.51 25.12Q-203.44 23.91-204.27 21.26Q-205.11 18.61-204.55 14.06L-204.55 14.06Q-204.00 9.78-201.90 5.41Q-199.81 1.04-196.74-2.31Q-193.67-5.66-190.05-6.87L-190.05-6.87Q-188.74-7.33-187.39-7.57Q-186.05-7.80-183.81-7.61L-183.81-7.61Q-181.68-7.33-180.00-6.54Q-178.33-5.75-177.58-4.82L-177.58-4.82Q-176.10-3.33-175.63-1.94Q-175.17-0.54-175.26 0.76L-175.26 0.76Q-175.72 3.73-177.91 7.17Q-180.09 10.61-184.00 12.29L-184.00 12.29Q-185.58 12.94-187.72 13.13Q-189.86 13.31-193.58 12.57L-193.58 12.57Q-195.81 12.10-196.51 13.03Q-197.21 13.96-197.11 16.66L-197.11 16.66Q-196.93 18.33-196.32 19.59Q-195.72 20.84-194.04 21.31L-194.04 21.31Q-191.91 21.68-190.98 21.36Q-190.05 21.03-188.65 20.38L-188.65 20.38Q-187.91 19.91-187.21 19.36Q-186.51 18.80-185.81 18.24Q-185.12 17.68-184.65 17.40L-184.65 17.40Q-184.19 17.03-183.72 16.94Q-183.26 16.85-182.79 16.85L-182.79 16.85Q-181.77 16.94-180.84 17.96Q-179.91 18.98-179.63 19.91L-179.63 19.91Q-179.63 20.66-180.56 22.01Q-181.49 23.36-183.02 24.80Q-184.56 26.24-186.42 27.36ZM-187.63 6.62L-187.63 6.62Q-186.98 6.34-185.72 5.31Q-184.47 4.29-183.44 3.13Q-182.42 1.97-182.42 1.32L-182.42 1.32Q-182.42 0.29-183.77-0.45Q-185.12-1.20-187.26-0.73L-187.26-0.73Q-188.00-0.54-189.02 0.29Q-190.05 1.13-191.07 2.20Q-192.09 3.27-192.84 4.24Q-193.58 5.22-193.86 5.78L-193.86 5.78Q-193.49 6.24-192.37 6.52Q-191.25 6.80-189.91 6.80Q-188.56 6.80-187.63 6.62ZM-168.47 30.24L-168.47 30.24Q-170.24 30.70-171.63 29.26Q-173.03 27.82-173.58 25.03Q-174.14 22.24-173.40 18.80L-173.40 18.80Q-172.93 17.68-172.65 16.61Q-172.38 15.54-172.38 14.89L-172.38 14.89Q-172.19 13.96-171.63 12.15Q-171.07 10.34-170.42 8.38Q-169.77 6.43-169.17 4.90Q-168.56 3.36-168.38 2.99L-168.38 2.99Q-168.00 2.99-167.73 2.34Q-167.45 1.69-167.45 1.04L-167.45 1.04Q-167.45 0.29-167.12-0.64Q-166.80-1.57-166.42-1.94L-166.42-1.94Q-166.42-2.41-166.19-3.01Q-165.96-3.61-165.96-3.99L-165.96-3.99Q-165.96-4.36-165.73-4.73Q-165.49-5.10-165.49-5.47L-165.49-5.47Q-164.84-6.68-163.77-9.33Q-162.70-11.98-161.45-15.24Q-160.19-18.49-159.08-21.66Q-157.96-24.82-157.26-27.00Q-156.57-29.19-156.57-29.65L-156.57-29.65Q-156.57-30.40-156.01-31.05Q-155.45-31.70-154.71-31.70L-154.71-31.70Q-154.43-31.98-153.40-32.12Q-152.38-32.26-152.01-32.26L-152.01-32.26Q-152.01-32.26-151.64-31.89Q-151.26-31.51-150.52-30.77L-150.52-30.77Q-149.78-30.12-149.08-29.28Q-148.38-28.44-148.38-27.33L-148.38-27.33Q-148.38-26.12-148.71-25.00Q-149.03-23.89-149.87-21.98Q-150.71-20.07-152.47-16.36L-152.47-16.36Q-153.22-14.50-154.05-12.87Q-154.89-11.24-154.89-10.87L-154.89-10.87Q-154.89-10.50-155.22-9.75Q-155.54-9.01-155.91-7.89L-155.91-7.89Q-156.29-7.15-156.94-5.71Q-157.59-4.26-158.29-2.64Q-158.98-1.01-159.45 0.15Q-159.91 1.32-159.91 1.50L-159.91 1.50Q-159.91 1.87-159.96 2.25Q-160.01 2.62-160.38 2.99L-160.38 2.99Q-160.75 2.99-160.80 3.50Q-160.84 4.01-160.84 4.01L-160.84 4.01Q-160.84 4.94-162.33 8.94L-162.33 8.94Q-163.82 14.06-165.07 18.33Q-166.33 22.61-166.33 25.22L-166.33 25.22Q-166.33 27.45-167.03 28.66Q-167.73 29.87-168.47 30.24ZM-155.54 27.63L-155.54 27.63Q-156.29 26.89-156.61 25.40Q-156.94 23.91-156.84 22.47Q-156.75 21.03-156.38 20.29L-156.38 20.29Q-156.38 19.54-156.15 19.12Q-155.91 18.71-156.01 18.33L-156.01 18.33Q-156.10 17.96-155.82 17.03Q-155.54 16.10-155.26 15.27L-155.26 15.27Q-154.61 13.78-153.78 11.41Q-152.94 9.03-152.10 6.57Q-151.26 4.11-150.71 2.29Q-150.15 0.48-150.06 0.11L-150.06 0.11Q-150.06-1.01-148.57-1.10L-148.57-1.10Q-147.45-1.48-145.87-0.17Q-144.29 1.13-143.36 2.62L-143.36 2.62Q-142.62 3.36-142.80 4.57Q-142.99 5.78-144.01 8.01L-144.01 8.01Q-144.38 8.75-144.89 10.48Q-145.41 12.20-145.59 13.31L-145.59 13.31Q-145.96 14.06-146.47 15.40Q-146.99 16.75-147.36 17.96L-147.36 17.96Q-147.54 18.43-147.73 19.68Q-147.92 20.94-148.20 22.24Q-148.47 23.54-148.94 24.29L-148.94 24.29Q-149.78 28.10-151.87 28.75Q-153.96 29.40-155.54 27.63ZM-145.50-9.66L-145.50-9.66Q-146.52-10.40-147.03-11.47Q-147.54-12.54-147.59-13.38Q-147.64-14.22-147.45-14.40L-147.45-14.40Q-146.52-15.43-145.82-17.10Q-145.13-18.77-144.29-20.17L-144.29-20.17Q-144.10-20.45-143.78-20.96Q-143.45-21.47-143.08-21.56L-143.08-21.56Q-141.96-22.31-139.96-21.47Q-137.97-20.63-137.04-19.14L-137.04-19.14Q-136.20-17.38-136.52-15.52Q-136.85-13.66-138.52-11.61L-138.52-11.61Q-139.92-9.75-142.06-9.24Q-144.20-8.73-145.50-9.66ZM-105.69 26.98L-105.69 26.98Q-107.74 26.80-109.09 26.10Q-110.44 25.40-111.27 23.26L-111.27 23.26Q-111.65 21.77-111.60 20.15Q-111.55 18.52-111.37 16.99Q-111.18 15.45-111.18 14.34L-111.18 14.34Q-111.18 14.15-111.18 13.59Q-111.18 13.03-111.18 12.57L-111.18 12.57Q-111.37 11.17-111.88 10.85Q-112.39 10.52-113.60 10.99L-113.60 10.99Q-115.55 11.92-117.83 13.45Q-120.11 14.99-122.57 16.99Q-125.04 18.98-127.64 21.22L-127.64 21.22Q-129.69 23.45-130.66 24.84Q-131.64 26.24-132.66 26.24L-132.66 26.24Q-133.41 26.61-134.25 26.05Q-135.08 25.50-136.01 24.75L-136.01 24.75Q-136.66 24.01-137.55 22.84Q-138.43 21.68-138.62 21.31L-138.62 21.31Q-138.62 19.82-138.38 18.61Q-138.15 17.40-137.64 16.10Q-137.13 14.80-136.38 13.13L-136.38 13.13Q-136.01 12.48-135.69 11.78Q-135.36 11.08-134.90 10.24L-134.90 10.24Q-134.52 8.94-133.83 7.27Q-133.13 5.59-132.48 4.11L-132.48 4.11Q-131.46 1.69-130.90-0.08Q-130.34-1.85-129.97-3.89L-129.97-3.89Q-130.06-4.08-129.87-4.45Q-129.69-4.82-129.32-4.92L-129.32-4.92L-129.22-4.92L-129.13-4.92Q-128.48-5.38-126.67-5.06Q-124.85-4.73-123.92-3.99L-123.92-3.99Q-121.97-2.31-122.06 0.39Q-122.16 3.08-124.85 7.45L-124.85 7.45Q-125.50 8.94-126.20 10.20Q-126.90 11.45-126.90 11.92L-126.90 11.92Q-126.90 11.92-126.15 11.36Q-125.41 10.80-124.39 10.01Q-123.36 9.22-122.62 8.75L-122.62 8.75Q-122.16 8.29-120.57 7.03Q-118.99 5.78-117.13 4.38Q-115.27 2.99-114.16 2.25L-114.16 2.25Q-113.13 1.50-111.55 0.71Q-109.97-0.08-109.60-0.08L-109.60-0.08Q-108.67-0.08-107.32 0.57Q-105.97 1.22-104.81 2.11Q-103.65 2.99-103.46 3.73L-103.46 3.73Q-103.46 4.11-103.56 4.71Q-103.65 5.31-103.65 5.78L-103.65 5.78Q-103.74 7.27-103.69 9.36Q-103.65 11.45-103.65 13.54Q-103.65 15.64-104.02 17.31L-104.02 17.31Q-104.02 17.31-103.93 17.45Q-103.83 17.59-103.74 17.87L-103.74 17.87Q-103.83 17.96-103.79 18.19Q-103.74 18.43-103.74 18.43L-103.74 18.43Q-103.56 19.08-103.32 19.73Q-103.09 20.38-102.72 21.17Q-102.35 21.96-101.88 23.17L-101.88 23.17Q-101.97 24.38-103.23 25.54Q-104.49 26.70-105.69 26.98ZM-84.30 47.81L-84.30 47.81Q-86.91 48.84-89.74 47.49Q-92.58 46.14-94.63 43.26L-94.63 43.26Q-95.00 42.70-95.74 41.26Q-96.49 39.82-97.18 38.14Q-97.88 36.47-98.21 35.26Q-98.53 34.05-98.25 33.87L-98.25 33.87Q-97.88 32.84-96.58 32.66Q-95.28 32.47-93.98 32.80Q-92.67 33.12-92.49 33.68L-92.49 33.68Q-92.21 34.33-91.93 35.03Q-91.65 35.73-91.23 36.33Q-90.81 36.93-90.44 37.40L-90.44 37.40Q-89.42 38.98-88.21 39.58Q-87.00 40.19-86.35 39.72L-86.35 39.72Q-84.77 38.52-83.98 36.89Q-83.19 35.26-81.89 31.17L-81.89 31.17Q-80.86 27.73-80.12 25.22Q-79.38 22.70-78.54 20.57L-78.54 20.57Q-78.26 19.45-77.84 18.66Q-77.42 17.87-77.05 17.50L-77.05 17.50L-76.49 17.50Q-78.54 18.80-79.93 20.10Q-81.33 21.40-83.75 22.43L-83.75 22.43Q-84.30 23.08-86.49 23.22Q-88.68 23.36-90.72 22.70L-90.72 22.70Q-92.02 21.96-92.81 21.17Q-93.60 20.38-94.12 19.36Q-94.63 18.33-95.19 16.94L-95.19 16.94Q-95.84 15.54-95.37 12.38Q-94.91 9.22-93.70 6.06L-93.70 6.06Q-92.58 3.73-90.44 1.04Q-88.30-1.66-85.89-3.85Q-83.47-6.03-81.51-6.59L-81.51-6.59Q-80.77-6.96-78.91-7.47Q-77.05-7.99-75.38-7.52L-75.38-7.52Q-73.80-7.33-72.96-6.82Q-72.12-6.31-70.26-4.73L-70.26-4.73Q-69.05-3.52-67.29-1.61Q-65.52 0.29-65.05 1.59L-65.05 1.59Q-64.40 2.99-64.77 4.62Q-65.15 6.24-66.08 7.45L-66.08 7.45Q-66.91 8.66-67.84 9.87Q-68.77 11.08-69.24 13.22L-69.24 13.22Q-69.70 16.01-71.01 19.50Q-72.31 22.98-73.05 25.96L-73.05 25.96L-74.54 31.73Q-76.86 39.63-79.65 43.21Q-82.44 46.79-84.30 47.81ZM-86.26 15.82L-86.26 15.82Q-84.40 15.73-83.05 15.40Q-81.70 15.08-80.49 13.92Q-79.28 12.75-77.70 10.34L-77.70 10.34Q-76.12 8.10-75.47 6.24Q-74.82 4.38-75.00 2.06L-75.00 2.06Q-75.10 0.57-75.84 0.11Q-76.59-0.36-77.79-0.17L-77.79-0.17Q-79.56 0.11-80.96 1.27Q-82.35 2.43-84.21 4.85L-84.21 4.85Q-85.61 6.71-86.54 9.31L-86.54 9.31Q-87.47 12.10-87.33 13.78Q-87.19 15.45-86.26 15.82ZM-23.30 34.80L-23.30 34.80Q-23.76 34.61-23.95 34.24Q-24.13 33.87-24.32 32.75L-24.32 32.75Q-24.32 31.73-24.88 31.26Q-25.44 30.80-27.02 30.42L-27.02 30.42Q-28.04 29.40-28.69 28.05Q-29.34 26.70-29.71 23.68Q-30.09 20.66-30.46 14.71L-30.46 14.71Q-30.27 11.45-30.13 9.22Q-29.99 6.99-29.81 5.04Q-29.62 3.08-29.39 0.85Q-29.16-1.38-28.69-4.73L-28.69-4.73Q-28.88-6.87-28.46-9.38Q-28.04-11.89-28.32-13.38L-28.32-13.38Q-27.67-15.43-27.48-18.08Q-27.30-20.73-26.64-22.77L-26.64-22.77Q-26.46-24.35-26.23-25.75Q-25.99-27.14-25.99-28.07L-25.99-28.07Q-26.18-29.93-25.57-31.98Q-24.97-34.03-22.92-34.95L-22.92-34.95Q-22.37-35.14-21.39-35.14Q-20.41-35.14-19.86-34.95L-19.86-34.95Q-18.37-34.30-18.13-32.91Q-17.90-31.51-18.00-30.49L-18.00-30.49Q-17.81-29.47-17.76-26.96Q-17.72-24.45-17.95-21.42Q-18.18-18.40-18.83-15.52L-18.83-15.52Q-19.58-11.71-19.99-7.75Q-20.41-3.80-20.60 0.01L-20.60 0.01Q-20.97 7.64-21.34 12.66Q-21.72 17.68-21.44 19.91L-21.44 19.91Q-21.44 20.19-21.39 20.71Q-21.34 21.22-21.16 21.54Q-20.97 21.87-20.69 21.87L-20.69 21.87Q-20.32 21.77-20.09 21.31Q-19.86 20.84-19.53 19.91Q-19.20 18.98-18.65 17.78L-18.65 17.78Q-17.44 15.45-16.18 12.71Q-14.93 9.96-14.00 7.45L-14.00 7.45Q-12.32 3.55-10.65 0.76Q-8.97-2.03-7.49-5.47L-7.49-5.47Q-6.93-6.96-5.49-9.80Q-4.05-12.64-2.74-15.05L-2.74-15.05Q-1.16-17.47 0.28-19.70Q1.72-21.93 3.67-25.65L3.67-25.65Q6.37-30.12 8.32-32.21Q10.28-34.30 11.76-34.30L11.76-34.30Q12.79-34.49 13.49-34.35Q14.18-34.21 14.83-33.28L14.83-33.28Q15.58-32.26 15.76-30.96Q15.95-29.65 15.16-27.61Q14.37-25.56 11.95-22.12L11.95-22.12Q10.09-19.33 7.81-15.61Q5.53-11.89 3.63-8.59Q1.72-5.29 0.88-3.71L0.88-3.71Q0.42-2.68 0.05-1.57Q-0.33-0.45-1.07 0.48L-1.07 0.48Q-2.00 1.41-3.58 4.48Q-5.16 7.55-6.65 10.52L-6.65 10.52Q-8.32 14.43-9.30 16.61Q-10.28 18.80-10.88 20.19Q-11.49 21.59-12.04 22.89Q-12.60 24.19-13.44 26.15L-13.44 26.15Q-13.90 27.73-14.69 28.84Q-15.48 29.96-15.58 30.52L-15.58 30.52Q-16.23 31.54-17.86 32.66Q-19.48 33.77-21.06 34.42Q-22.65 35.07-23.30 34.80ZM4.60 27.26L4.60 27.26Q4.23 26.52 2.98 25.77Q1.72 25.03 1.72 24.66L1.72 24.66Q1.72 24.29 1.30 23.50Q0.88 22.70 0.51 22.33L0.51 22.33Q0.05 21.77 0.79 19.59Q1.53 17.40 3.02 14.24Q4.51 11.08 6.28 7.82L6.28 7.82Q7.02 7.08 7.77 5.87Q8.51 4.66 8.88 4.29L8.88 4.29Q8.88 3.92 9.16 3.59Q9.44 3.27 9.81 3.27L9.81 3.27L10.56 1.78Q10.74 1.41 11.72 0.29Q12.69-0.82 14.09-2.17Q15.48-3.52 16.93-4.73Q18.37-5.94 19.30-6.50L19.30-6.50Q21.25-7.80 23.34-7.71Q25.44-7.61 26.92-6.40L26.92-6.40Q27.20-6.12 28.18-5.29Q29.16-4.45 30.41-3.43Q31.67-2.41 32.60-1.57L32.60-1.57L36.04 1.50L34.46 6.15Q33.25 9.87 33.85 12.66Q34.46 15.45 35.57 17.50L35.57 17.50Q36.04 18.52 36.83 19.08Q37.62 19.64 38.92 19.82L38.92 19.82Q39.66 19.91 40.32 20.38Q40.97 20.84 40.97 21.87L40.97 21.87Q40.97 24.10 40.18 25.08Q39.39 26.05 38.46 26.24L38.46 26.24Q35.39 26.61 32.60 25.59Q29.81 24.56 27.57 20.29L27.57 20.29Q27.20 19.73 26.60 18.19Q25.99 16.66 25.90 16.20L25.90 16.20Q25.53 16.66 24.92 17.36Q24.32 18.05 23.76 18.61L23.76 18.61Q17.16 25.31 12.46 27.31Q7.77 29.31 4.60 27.26ZM9.72 19.54L9.72 19.54Q10.37 19.64 11.76 18.85Q13.16 18.05 15.48 16.20L15.48 16.20Q18.65 13.50 20.69 11.73Q22.74 9.96 24.69 7.17L24.69 7.17L26.74 3.83Q25.81 1.69 25.06 1.04Q24.32 0.39 23.58 0.39L23.58 0.39Q22.37 0.39 20.69 1.92Q19.02 3.45 16.93 6.38Q14.83 9.31 12.23 13.68L12.23 13.68Q11.02 15.73 10.37 17.64Q9.72 19.54 9.72 19.54ZM75.75 26.98L75.75 26.98Q73.70 26.80 72.35 26.10Q71.01 25.40 70.17 23.26L70.17 23.26Q69.80 21.77 69.84 20.15Q69.89 18.52 70.08 16.99Q70.26 15.45 70.26 14.34L70.26 14.34Q70.26 14.15 70.26 13.59Q70.26 13.03 70.26 12.57L70.26 12.57Q70.08 11.17 69.56 10.85Q69.05 10.52 67.84 10.99L67.84 10.99Q65.89 11.92 63.61 13.45Q61.33 14.99 58.87 16.99Q56.40 18.98 53.80 21.22L53.80 21.22Q51.75 23.45 50.78 24.84Q49.80 26.24 48.78 26.24L48.78 26.24Q48.03 26.61 47.20 26.05Q46.36 25.50 45.43 24.75L45.43 24.75Q44.78 24.01 43.90 22.84Q43.01 21.68 42.83 21.31L42.83 21.31Q42.83 19.82 43.06 18.61Q43.29 17.40 43.80 16.10Q44.31 14.80 45.06 13.13L45.06 13.13Q45.43 12.48 45.76 11.78Q46.08 11.08 46.55 10.24L46.55 10.24Q46.92 8.94 47.62 7.27Q48.31 5.59 48.96 4.11L48.96 4.11Q49.99 1.69 50.55-0.08Q51.10-1.85 51.48-3.89L51.48-3.89Q51.38-4.08 51.57-4.45Q51.75-4.82 52.13-4.92L52.13-4.92L52.22-4.92L52.31-4.92Q52.96-5.38 54.78-5.06Q56.59-4.73 57.52-3.99L57.52-3.99Q59.47-2.31 59.38 0.39Q59.29 3.08 56.59 7.45L56.59 7.45Q55.94 8.94 55.24 10.20Q54.54 11.45 54.54 11.92L54.54 11.92Q54.54 11.92 55.29 11.36Q56.03 10.80 57.06 10.01Q58.08 9.22 58.82 8.75L58.82 8.75Q59.29 8.29 60.87 7.03Q62.45 5.78 64.31 4.38Q66.17 2.99 67.29 2.25L67.29 2.25Q68.31 1.50 69.89 0.71Q71.47-0.08 71.84-0.08L71.84-0.08Q72.77-0.08 74.12 0.57Q75.47 1.22 76.63 2.11Q77.79 2.99 77.98 3.73L77.98 3.73Q77.98 4.11 77.89 4.71Q77.79 5.31 77.79 5.78L77.79 5.78Q77.70 7.27 77.75 9.36Q77.79 11.45 77.79 13.54Q77.79 15.64 77.42 17.31L77.42 17.31Q77.42 17.31 77.52 17.45Q77.61 17.59 77.70 17.87L77.70 17.87Q77.61 17.96 77.66 18.19Q77.70 18.43 77.70 18.43L77.70 18.43Q77.89 19.08 78.12 19.73Q78.35 20.38 78.72 21.17Q79.10 21.96 79.56 23.17L79.56 23.17Q79.47 24.38 78.21 25.54Q76.96 26.70 75.75 26.98ZM110.44 34.52L110.44 34.52Q109.32 34.52 108.58 33.31L108.58 33.31Q108.02 32.75 107.37 31.54Q106.72 30.33 106.95 27.59Q107.18 24.84 108.95 19.54L108.95 19.54Q109.88 16.01 110.44 14.38Q111.00 12.75 111.00 12.01L111.00 12.01Q111.00 10.99 111.23 10.29Q111.46 9.59 111.46 8.94L111.46 8.94Q112.02 8.94 112.58 7.92Q113.13 6.89 113.51 5.13L113.51 5.13Q113.88 3.55 114.20 2.57Q114.53 1.59 114.53 1.22L114.53 1.22Q114.99 0.48 115.51-1.10Q116.02-2.68 117.13-4.92L117.13-4.92Q117.88-7.71 118.81-10.73Q119.74-13.75 120.71-16.40Q121.69-19.05 122.34-20.54L122.34-20.54Q123.36-23.42 123.92-24.59Q124.48-25.75 123.92-26.12L123.92-26.12Q123.27-26.58 123.32-28.49Q123.36-30.40 125.04-31.79L125.04-31.79Q126.06-33.00 127.64-33.51Q129.22-34.03 131.27-34.03Q133.32-34.03 135.55-33.84L135.55-33.84Q137.22-33.75 139.13-33.75Q141.03-33.75 141.50-33.75L141.50-33.75Q142.34-33.37 143.55-32.91Q144.75-32.44 145.73-32.03Q146.71-31.61 146.71-31.33L146.71-31.33Q146.71-30.77 147.13-30.63Q147.54-30.49 148.01-30.40L148.01-30.40Q148.66-30.40 150.15-29.24Q151.64-28.07 153.17-26.45Q154.71-24.82 155.36-23.24L155.36-23.24Q156.10-21.66 156.61-20.26Q157.12-18.87 156.66-16.26L156.66-16.26Q156.57-14.87 156.24-13.47Q155.91-12.08 155.54-11.61L155.54-11.61Q154.98-11.24 154.52-10.68Q154.05-10.12 154.05-9.66L154.05-9.66Q154.05-9.29 153.31-7.85Q152.57-6.40 151.45-4.59Q150.33-2.78 149.03-1.01Q147.73 0.76 146.61 1.78L146.61 1.78Q145.41 3.27 143.78 4.57Q142.15 5.87 140.85 6.71L140.85 6.71Q138.43 7.82 135.32 8.85Q132.20 9.87 129.32 10.48Q126.43 11.08 124.67 10.99L124.67 10.99Q121.97 11.36 121.13 11.68Q120.30 12.01 119.92 13.31L119.92 13.31Q119.46 14.52 119.04 15.82Q118.62 17.13 118.62 17.68L118.62 17.68Q118.44 18.05 117.83 19.73Q117.23 21.40 116.44 23.63Q115.65 25.87 114.99 28.10Q114.34 30.33 113.97 31.91L113.97 31.91Q113.60 33.21 112.44 33.87Q111.27 34.52 110.44 34.52ZM123.64 3.45L123.64 3.45Q124.02 3.83 126.06 3.55Q128.11 3.27 130.99 2.15L130.99 2.15Q132.85 1.50 134.76 0.57Q136.66-0.36 138.43-1.48L138.43-1.48Q139.36-2.13 140.38-3.10Q141.41-4.08 143.27-6.40L143.27-6.40Q143.55-6.87 144.24-8.22Q144.94-9.57 145.50-10.78L145.50-10.78Q146.34-12.08 147.17-14.63Q148.01-17.19 147.54-18.87L147.54-18.87Q147.08-21.28 145.68-22.91Q144.29-24.54 142.15-25.28L142.15-25.28Q140.10-25.65 138.76-25.75Q137.41-25.84 135.83-25.56L135.83-25.56Q134.34-25.10 133.73-24.26Q133.13-23.42 132.01-20.73L132.01-20.73Q131.36-19.42 130.15-17.15Q128.94-14.87 128.11-12.54L128.11-12.54Q126.43-6.40 125.18-3.15Q123.92 0.11 123.55 1.13L123.55 1.13Q123.64 2.15 123.46 2.57Q123.27 2.99 123.64 3.45ZM154.33 26.70L154.33 26.70Q153.50 26.05 152.52 25.03Q151.54 24.01 151.82 22.15L151.82 22.15Q152.10 19.54 152.57 17.54Q153.03 15.54 153.68 12.94L153.68 12.94Q153.87 11.82 154.66 9.13Q155.45 6.43 156.57 3.27Q157.68 0.11 158.89-2.73Q160.10-5.57 161.03-6.96L161.03-6.96Q162.05-7.89 164.05-7.89Q166.05-7.89 166.80-7.15L166.80-7.15Q167.82-6.31 167.45-4.22Q167.07-2.13 164.84 2.25L164.84 2.25Q164.38 3.36 163.68 4.62Q162.98 5.87 162.70 6.66Q162.42 7.45 162.89 7.36L162.89 7.36Q163.45 6.34 164.94 4.99Q166.42 3.64 168.10 2.34Q169.77 1.04 171.26 0.01Q172.75-1.01 173.31-1.29L173.31-1.29Q174.05-1.75 175.03-2.08Q176.00-2.41 176.37-2.59L176.37-2.59Q178.51-3.61 181.07-3.38Q183.63-3.15 184.19-1.75L184.19-1.75Q184.28-1.01 184.79-0.64Q185.30-0.27 185.30-0.27L185.30-0.27Q185.67-0.27 185.72 0.01Q185.77 0.29 185.77 0.29L185.77 0.29Q185.77 0.94 184.51 2.15Q183.26 3.36 181.77 3.45L181.77 3.45Q180.56 3.55 179.63 3.92Q178.70 4.29 177.40 4.85L177.40 4.85Q173.86 6.89 171.03 8.48Q168.19 10.06 165.21 13.31L165.21 13.31Q164.56 14.06 163.82 14.71Q163.08 15.36 162.33 16.57L162.33 16.57Q161.87 17.03 161.40 18.61Q160.94 20.19 160.61 21.64Q160.29 23.08 160.29 23.36L160.29 23.36Q160.29 23.36 160.01 24.24Q159.73 25.12 159.08 25.96L159.08 25.96Q157.96 27.45 156.89 27.82Q155.82 28.19 154.33 26.70ZM192.37 28.56L192.37 28.56Q191.16 28.56 190.46 28.10Q189.77 27.63 188.74 26.80L188.74 26.80Q186.98 24.94 185.91 22.80Q184.84 20.66 185.12 19.08L185.12 19.08Q185.40 18.33 185.35 17.64Q185.30 16.94 185.30 16.94L185.30 16.94Q184.84 16.47 185.02 16.33Q185.21 16.20 185.40 15.82L185.40 15.82Q185.95 15.82 185.77 14.80L185.77 14.80Q185.58 14.06 186.37 11.59Q187.16 9.13 188.56 6.89L188.56 6.89Q189.12 5.96 190.23 4.43Q191.35 2.90 192.70 1.36Q194.04-0.17 195.16-1.10L195.16-1.10Q197.49-3.06 199.49-4.26Q201.48-5.47 203.53-5.94L203.53-5.94Q205.58-6.40 207.76-6.40Q209.95-6.40 211.34-4.92L211.34-4.92Q213.48-3.99 214.37-2.41Q215.25-0.82 215.53 1.69L215.53 1.69Q215.81 4.48 214.97 8.52Q214.13 12.57 210.41 17.87L210.41 17.87Q208.09 21.22 205.86 23.08Q203.62 24.94 200.93 26.52L200.93 26.52Q198.97 27.82 196.74 28.10Q194.51 28.38 192.37 28.56ZM201.86 17.22L201.86 17.22Q203.90 15.45 204.79 13.31Q205.67 11.17 206.69 8.29L206.69 8.29Q207.06 7.73 207.20 6.43Q207.34 5.13 207.25 3.87Q207.16 2.62 206.60 2.43L206.60 2.43Q205.76 1.78 204.93 2.11Q204.09 2.43 202.79 3.36L202.79 3.36Q200.00 5.69 197.63 8.71Q195.25 11.73 194.32 16.10L194.32 16.10Q194.04 18.43 194.84 19.59Q195.63 20.75 197.44 20.24Q199.25 19.73 201.86 17.22ZM231.71 28.66L231.71 28.66Q229.85 28.47 228.78 27.68Q227.71 26.89 227.15 25.68L227.15 25.68Q226.41 24.84 226.27 24.38Q226.13 23.91 226.22 23.54L226.22 23.54Q226.69 23.54 227.06 23.50Q227.43 23.45 227.52 23.17L227.52 23.17Q227.52 22.89 227.85 22.80Q228.18 22.70 228.55 22.80L228.55 22.80Q230.31 22.89 232.87 21.59Q235.43 20.29 238.50 17.92Q241.57 15.54 244.64 12.75L244.64 12.75Q247.05 9.59 248.03 8.10Q249.01 6.62 249.05 5.83Q249.10 5.04 248.64 4.20L248.64 4.20Q248.26 3.45 246.87 3.45Q245.47 3.45 242.59 5.31L242.59 5.31Q238.59 7.82 236.17 9.96Q233.76 12.10 231.71 14.80L231.71 14.80Q230.97 15.73 230.08 16.80Q229.20 17.87 228.59 18.61Q227.99 19.36 227.99 19.36L227.99 19.36Q227.99 19.73 226.92 20.29Q225.85 20.84 225.11 20.84L225.11 20.84Q224.73 20.66 224.13 20.15Q223.53 19.64 223.34 18.80L223.34 18.80Q222.50 18.15 221.94 17.64Q221.39 17.13 221.39 15.92L221.39 15.92Q221.39 15.17 221.62 14.06Q221.85 12.94 222.32 11.17L222.32 11.17Q222.87 8.75 223.53 6.10Q224.18 3.45 224.78 1.55Q225.39-0.36 225.66-0.54L225.66-0.54Q225.66-0.54 226.04-1.38Q226.41-2.22 226.41-3.33L226.41-3.33Q226.59-4.45 227.01-5.29Q227.43-6.12 227.43-6.50L227.43-6.50Q227.80-6.78 228.55-8.73Q229.29-10.68 230.41-13.84L230.41-13.84Q230.41-14.12 231.06-15.66Q231.71-17.19 232.64-19.28Q233.57-21.38 234.55-23.66Q235.52-25.93 236.17-27.70L236.17-27.70Q237.29-29.28 238.08-30.91Q238.87-32.54 239.52-32.82L239.52-32.82Q239.99-32.91 241.15-32.44Q242.31-31.98 243.52-31.24Q244.73-30.49 245.19-29.75L245.19-29.75Q245.47-29.28 245.52-28.82Q245.57-28.35 245.10-27.28Q244.64-26.21 243.52-23.84Q242.40-21.47 240.36-17.19L240.36-17.19Q237.75-11.61 236.31-7.89Q234.87-4.17 233.99-1.48Q233.10 1.22 232.17 3.64L232.17 3.64L231.71 5.69L234.13 2.99Q235.06 2.06 236.08 1.22Q237.10 0.39 238.31-0.45L238.31-0.45Q239.06-1.01 240.31-1.61Q241.57-2.22 242.78-2.68Q243.99-3.15 244.54-3.24L244.54-3.24Q244.82-3.33 246.45-3.66Q248.08-3.99 249.66-3.99L249.66-3.99Q251.70-3.99 253.24-2.54Q254.77-1.10 255.98 0.94L255.98 0.94Q257.01 2.90 256.73 5.92Q256.45 8.94 255.15 11.08L255.15 11.08Q254.68 11.45 254.22 12.06Q253.75 12.66 253.75 13.03L253.75 13.03Q253.66 13.68 252.08 15.68Q250.50 17.68 248.91 19.45L248.91 19.45Q247.24 21.22 244.82 22.94Q242.40 24.66 240.03 26.01Q237.66 27.36 235.99 27.91L235.99 27.91Q235.24 28.01 233.85 28.24Q232.45 28.47 231.71 28.66ZM264.91 30.24L264.91 30.24Q263.14 30.70 261.75 29.26Q260.35 27.82 259.80 25.03Q259.24 22.24 259.98 18.80L259.98 18.80Q260.45 17.68 260.73 16.61Q261.00 15.54 261.00 14.89L261.00 14.89Q261.19 13.96 261.75 12.15Q262.31 10.34 262.96 8.38Q263.61 6.43 264.21 4.90Q264.82 3.36 265.00 2.99L265.00 2.99Q265.38 2.99 265.65 2.34Q265.93 1.69 265.93 1.04L265.93 1.04Q265.93 0.29 266.26-0.64Q266.58-1.57 266.96-1.94L266.96-1.94Q266.96-2.41 267.19-3.01Q267.42-3.61 267.42-3.99L267.42-3.99Q267.42-4.36 267.65-4.73Q267.89-5.10 267.89-5.47L267.89-5.47Q268.54-6.68 269.61-9.33Q270.68-11.98 271.93-15.24Q273.19-18.49 274.30-21.66Q275.42-24.82 276.12-27.00Q276.81-29.19 276.81-29.65L276.81-29.65Q276.81-30.40 277.37-31.05Q277.93-31.70 278.67-31.70L278.67-31.70Q278.95-31.98 279.98-32.12Q281.00-32.26 281.37-32.26L281.37-32.26Q281.37-32.26 281.74-31.89Q282.12-31.51 282.86-30.77L282.86-30.77Q283.60-30.12 284.30-29.28Q285.00-28.44 285.00-27.33L285.00-27.33Q285.00-26.12 284.67-25.00Q284.35-23.89 283.51-21.98Q282.67-20.07 280.91-16.36L280.91-16.36Q280.16-14.50 279.33-12.87Q278.49-11.24 278.49-10.87L278.49-10.87Q278.49-10.50 278.16-9.75Q277.84-9.01 277.47-7.89L277.47-7.89Q277.09-7.15 276.44-5.71Q275.79-4.26 275.09-2.64Q274.40-1.01 273.93 0.15Q273.47 1.32 273.47 1.50L273.47 1.50Q273.47 1.87 273.42 2.25Q273.37 2.62 273.00 2.99L273.00 2.99Q272.63 2.99 272.58 3.50Q272.54 4.01 272.54 4.01L272.54 4.01Q272.54 4.94 271.05 8.94L271.05 8.94Q269.56 14.06 268.31 18.33Q267.05 22.61 267.05 25.22L267.05 25.22Q267.05 27.45 266.35 28.66Q265.65 29.87 264.91 30.24ZM295.51 27.36L295.51 27.36Q292.72 28.94 289.60 29.17Q286.49 29.40 283.79 28.33Q281.09 27.26 279.42 25.12L279.42 25.12Q278.49 23.91 277.65 21.26Q276.81 18.61 277.37 14.06L277.37 14.06Q277.93 9.78 280.02 5.41Q282.12 1.04 285.18-2.31Q288.25-5.66 291.88-6.87L291.88-6.87Q293.18-7.33 294.53-7.57Q295.88-7.80 298.11-7.61L298.11-7.61Q300.25-7.33 301.92-6.54Q303.60-5.75 304.34-4.82L304.34-4.82Q305.83-3.33 306.30-1.94Q306.76-0.54 306.67 0.76L306.67 0.76Q306.20 3.73 304.02 7.17Q301.83 10.61 297.93 12.29L297.93 12.29Q296.34 12.94 294.21 13.13Q292.07 13.31 288.35 12.57L288.35 12.57Q286.11 12.10 285.42 13.03Q284.72 13.96 284.81 16.66L284.81 16.66Q285.00 18.33 285.60 19.59Q286.21 20.84 287.88 21.31L287.88 21.31Q290.02 21.68 290.95 21.36Q291.88 21.03 293.28 20.38L293.28 20.38Q294.02 19.91 294.72 19.36Q295.41 18.80 296.11 18.24Q296.81 17.68 297.27 17.40L297.27 17.40Q297.74 17.03 298.20 16.94Q298.67 16.85 299.13 16.85L299.13 16.85Q300.16 16.94 301.09 17.96Q302.02 18.98 302.30 19.91L302.30 19.91Q302.30 20.66 301.37 22.01Q300.44 23.36 298.90 24.80Q297.37 26.24 295.51 27.36ZM294.30 6.62L294.30 6.62Q294.95 6.34 296.21 5.31Q297.46 4.29 298.48 3.13Q299.51 1.97 299.51 1.32L299.51 1.32Q299.51 0.29 298.16-0.45Q296.81-1.20 294.67-0.73L294.67-0.73Q293.93-0.54 292.90 0.29Q291.88 1.13 290.86 2.20Q289.83 3.27 289.09 4.24Q288.35 5.22 288.07 5.78L288.07 5.78Q288.44 6.24 289.56 6.52Q290.67 6.80 292.02 6.80Q293.37 6.80 294.30 6.62ZM351.96 26.98L351.96 26.98Q351.31 26.80 349.91 25.77Q348.52 24.75 347.45 22.70Q346.38 20.66 346.47 17.40L346.47 17.40Q346.56 14.61 346.89 13.45Q347.22 12.29 346.56 12.20L346.56 12.20Q346.10 12.10 344.70 13.03Q343.31 13.96 341.08 16.01Q338.85 18.05 335.68 21.40L335.68 21.40Q334.57 22.33 333.22 23.68Q331.87 25.03 330.52 25.68Q329.17 26.33 328.15 25.40L328.15 25.40L327.22 24.56Q326.57 24.01 326.10 23.08Q325.64 22.15 325.83 21.50L325.83 21.50L328.43 14.24Q329.55 11.82 329.96 10.71Q330.38 9.59 330.34 9.31Q330.29 9.03 329.82 9.13L329.82 9.13Q329.27 9.22 328.24 10.10Q327.22 10.99 326.85 11.55L326.85 11.55Q326.48 11.55 325.87 12.29Q325.27 13.03 324.71 13.59L324.71 13.59Q324.15 14.15 322.76 15.68Q321.36 17.22 319.78 18.89L319.78 18.89Q318.57 20.01 316.99 21.87Q315.41 23.73 314.20 25.22Q312.99 26.70 312.71 26.70L312.71 26.70Q311.04 26.61 309.69 25.59Q308.34 24.56 307.88 23.08L307.88 23.08Q307.32 22.05 307.78 19.31Q308.25 16.57 309.55 10.52L309.55 10.52Q309.92 9.13 310.25 8.10Q310.57 7.08 310.95 6.06Q311.32 5.04 311.83 3.73Q312.34 2.43 313.18 0.57L313.18 0.57Q313.64-0.73 313.55-1.89Q313.46-3.06 313.36-3.80L313.36-3.80Q313.36-5.19 314.25-6.03Q315.13-6.87 316.25-7.19Q317.36-7.52 318.01-7.33L318.01-7.33Q320.62-7.06 321.55-5.47Q322.48-3.89 322.57-2.41L322.57-2.41Q322.66-1.01 322.20 0.11Q321.73 1.22 321.45 1.97L321.45 1.97L320.43 4.48Q319.50 6.62 319.08 7.59Q318.66 8.57 318.62 8.89Q318.57 9.22 318.57 9.50L318.57 9.50Q318.66 9.78 319.41 9.22Q320.15 8.66 321.22 7.69Q322.29 6.71 323.22 5.96L323.22 5.96Q324.90 4.57 326.80 3.13Q328.71 1.69 330.57 0.57Q332.43-0.54 333.64-0.92L333.64-0.92Q335.22-0.64 336.57 0.66Q337.92 1.97 338.29 2.90L338.29 2.90Q338.75 4.29 338.43 5.41Q338.10 6.52 337.92 7.45L337.92 7.45Q337.82 7.82 337.54 8.85Q337.26 9.87 336.99 10.75Q336.71 11.64 336.71 11.64L336.71 11.64Q336.71 11.64 337.26 11.08Q337.82 10.52 338.75 9.73Q339.68 8.94 340.61 8.29L340.61 8.29Q345.26 4.76 348.01 3.78Q350.75 2.80 352.70 5.41L352.70 5.41Q353.82 6.43 354.14 8.20Q354.47 9.96 354.47 12.94L354.47 12.94Q354.56 14.15 354.70 15.64Q354.84 17.13 355.07 18.24Q355.31 19.36 355.49 19.64L355.49 19.64Q355.77 20.01 356.52 20.33Q357.26 20.66 357.91 20.84L357.91 20.84Q359.21 21.50 359.35 23.22Q359.49 24.94 358.00 25.87L358.00 25.87Q356.61 26.70 355.07 26.89Q353.54 27.08 351.96 26.98Z"/></g>
</svg>
